<svg width="528" height="528" viewBox="0 0 528 528" fill="none" xmlns="http://www.w3.org/2000/svg">
<path d="M395.626 16.617C404.804 7.4397 419.683 7.43969 428.86 16.617V16.617C438.038 25.7943 438.038 40.6737 428.86 49.851L49.8511 428.86C40.6738 438.038 25.7944 438.038 16.617 428.86V428.86C7.43973 419.683 7.43973 404.804 16.617 395.626L395.626 16.617Z" fill="#404040"/>
<path d="M477.306 16.617C486.484 7.43969 501.363 7.43969 510.54 16.617V16.617C519.718 25.7943 519.718 40.6737 510.54 49.851L49.851 510.54C40.6737 519.718 25.7943 519.718 16.617 510.54V510.54C7.43966 501.363 7.43966 486.484 16.617 477.306L477.306 16.617Z" fill="#404040"/>
<path d="M477.626 98.617C486.804 89.4397 501.683 89.4397 510.86 98.617V98.617C520.038 107.794 520.038 122.674 510.86 131.851L131.851 510.86C122.674 520.038 107.794 520.038 98.617 510.86V510.86C89.4397 501.683 89.4397 486.804 98.617 477.626L477.626 98.617Z" fill="#404040"/>
<circle cx="264" cy="264" r="210" fill="#131313"/>
</svg>
