<svg width="531" height="530" viewBox="0 0 531 530" fill="none" xmlns="http://www.w3.org/2000/svg">
<path d="M395.626 21.617C404.803 12.4397 419.683 12.4397 428.86 21.617V21.617C438.037 30.7943 438.037 45.6737 428.86 54.851L49.851 433.86C40.6736 443.038 25.7942 443.038 16.6169 433.86V433.86C7.43961 424.683 7.43961 409.804 16.6169 400.626L395.626 21.617Z" fill="#F0ECFD"/>
<path d="M480.307 16.617C489.484 7.43969 504.363 7.43969 513.541 16.617V16.617C522.718 25.7943 522.718 40.6737 513.541 49.851L52.8511 510.54C43.6738 519.718 28.7944 519.718 19.6171 510.54V510.54C10.4398 501.363 10.4398 486.484 19.6171 477.306L480.307 16.617Z" fill="#F0ECFD"/>
<path d="M474.822 100.813C484 91.6356 498.879 91.6356 508.056 100.813V100.813C517.234 109.99 517.234 124.87 508.056 134.047L129.047 513.056C119.87 522.233 104.99 522.233 95.813 513.056V513.056C86.6357 503.879 86.6357 488.999 95.813 479.822L474.822 100.813Z" fill="#F0ECFD"/>
<circle cx="267" cy="264" r="210" fill="#D9D9D9"/>
</svg>
